<?xml version="1.0" encoding="utf-8"?>
<!-- Svg Vector Icons : http://www.onlinewebfonts.com/icon -->
<!DOCTYPE svg PUBLIC "-//W3C//DTD SVG 1.1//EN" "http://www.w3.org/Graphics/SVG/1.1/DTD/svg11.dtd">
<svg version="1.1" xmlns="http://www.w3.org/2000/svg" xmlns:xlink="http://www.w3.org/1999/xlink" x="0px" y="0px" viewBox="0 0 1000 1000" enable-background="new 0 0 1000 1000" xml:space="preserve">
<metadata> Svg Vector Icons : http://www.onlinewebfonts.com/icon </metadata>
<g><path d="M900.2,889.6c56.5-80.6,89.8-178.9,89.8-285.1c0-272.9-219.4-494.1-490-494.1c-270.6,0-490,221.2-490,494.1c0,106.2,33.2,204.6,89.8,285.1c45.6-69.6,142.1-124.3,262.7-148.3c-46.9-46.3-76.8-115.7-76.8-193.4c0-139.3,96-252.2,214.4-252.2s214.4,112.9,214.4,252.2c0,77.7-29.8,147.2-76.8,193.4C758.2,765.3,854.7,820,900.2,889.6L900.2,889.6z"/></g>
</svg>