<?xml version="1.0" encoding="utf-8"?>
<!-- Svg Vector Icons : http://www.onlinewebfonts.com/icon -->
<!DOCTYPE svg PUBLIC "-//W3C//DTD SVG 1.1//EN" "http://www.w3.org/Graphics/SVG/1.1/DTD/svg11.dtd">
<svg version="1.1" xmlns="http://www.w3.org/2000/svg" xmlns:xlink="http://www.w3.org/1999/xlink" x="0px" y="0px" viewBox="0 0 1000 1000" enable-background="new 0 0 1000 1000" xml:space="preserve">
<metadata> Svg Vector Icons : http://www.onlinewebfonts.com/icon </metadata>
<g><g><path d="M990,205.1v-71.7c0-20.3-16.5-36.7-36.8-36.7H46.7c-20.3,0-36.7,16.5-36.7,36.7v71.7c0,20.3,16.4,36.8,36.7,36.8h3.1c20.3,0,36.7,16.5,36.7,36.7v442.8c0,20.3-16.5,36.7-36.7,36.7h-3.1c-20.3,0-36.7,16.5-36.7,36.8v71.7c0,20.3,16.4,36.8,36.7,36.8h906.5c20.3,0,36.7-16.5,36.7-36.8v-71.7c0-20.3-14.4-36.8-32.2-36.8c-17.8,0-32.2-16.5-32.2-36.8V278.6c0-20.3,14.4-36.7,32.2-36.7C975.6,241.8,990,225.4,990,205.1z M827.7,137h39c20.3,0,36.8,14.4,36.8,32.2c0,17.8-16.5,32.2-36.8,32.2h-39c-20.3,0-36.8-14.4-36.8-32.2C791,151.5,807.4,137,827.7,137z M654.7,137.1h39c20.3,0,36.8,14.4,36.8,32.2c0,17.8-16.5,32.2-36.8,32.2h-39c-20.3,0-36.8-14.4-36.8-32.2C617.9,151.5,634.4,137.1,654.7,137.1z M481.6,137.1h39c20.3,0,36.8,14.4,36.8,32.1c0,17.8-16.5,32.2-36.8,32.2h-39c-20.3,0-36.7-14.4-36.7-32.2C444.9,151.5,461.3,137.1,481.6,137.1z M308.6,137.1h39c20.3,0,36.8,14.4,36.8,32.2c0,17.8-16.5,32.2-36.8,32.2h-39c-20.3,0-36.8-14.4-36.8-32.2C271.8,151.5,288.3,137.1,308.6,137.1z M135.6,137.1h39c20.3,0,36.7,14.4,36.7,32.2c0,17.8-16.5,32.2-36.7,32.2h-39c-20.3,0-36.8-14.4-36.8-32.2C98.8,151.5,115.3,137.1,135.6,137.1z M180.7,870.6h-39c-20.3,0-36.7-14.4-36.7-32.2c0-17.8,16.4-32.2,36.7-32.2h39c20.3,0,36.7,14.4,36.7,32.2C217.5,856.2,201,870.6,180.7,870.6z M353.8,870.6h-39c-20.3,0-36.7-14.4-36.7-32.2c0-17.8,16.4-32.2,36.7-32.2h39c20.3,0,36.8,14.4,36.8,32.2C390.5,856.2,374,870.6,353.8,870.6z M526.8,870.5h-39c-20.3,0-36.8-14.4-36.8-32.2c0-17.8,16.4-32.2,36.8-32.2h39c20.3,0,36.8,14.4,36.8,32.2C563.6,856.2,547.1,870.5,526.8,870.5z M699.8,870.5h-39c-20.3,0-36.8-14.4-36.8-32.2c0-17.8,16.4-32.2,36.8-32.2h39c20.3,0,36.7,14.4,36.7,32.2C736.6,856.1,720.1,870.5,699.8,870.5z M872.9,870.5h-39c-20.3,0-36.8-14.4-36.8-32.2c0-17.7,16.4-32.2,36.8-32.2h39c20.3,0,36.8,14.4,36.8,32.2C909.6,856.1,893.2,870.5,872.9,870.5z M852.2,758.1H160c-20.3,0-36.7-16.5-36.7-36.8V278.6c0-20.3,16.4-36.7,36.7-36.7h692.1c20.3,0,36.7,16.5,36.7,36.7v442.8C888.9,741.7,872.5,758.1,852.2,758.1z"/></g><g></g><g></g><g></g><g></g><g></g><g></g><g></g><g></g><g></g><g></g><g></g><g></g><g></g><g></g><g></g></g>
</svg>