<svg xmlns="http://www.w3.org/2000/svg" viewBox="0 0 500 500" enable-background="new 0 0 500 500"><path fill="#B5B7B8" d="M449.9 125.1h-60c-8.2 0-17.1-6.4-19.7-14.2l-15.5-46.5c-2.6-7.8-11.5-14.2-19.7-14.2H165c-8.2 0-17.1 6.4-19.7 14.2l-15.5 46.5c-2.6 7.8-11.5 14.2-19.7 14.2h-60c-27.5 0-50 22.5-50 50V400c0 27.5 22.5 50 50 50h399.8c27.5 0 50-22.5 50-50V175c0-27.4-22.5-49.9-50-49.9zM250 382c-59.1 0-107-47.9-107-107s47.9-107 107-107 107 47.9 107 107-47.9 107-107 107zm182.4-172c-9.7 0-17.5-7.8-17.5-17.5s7.8-17.5 17.5-17.5 17.5 7.8 17.5 17.5-7.8 17.5-17.5 17.5z"/></svg>