<?xml version="1.0" standalone="no"?>
<!DOCTYPE svg PUBLIC "-//W3C//DTD SVG 20010904//EN"
 "http://www.w3.org/TR/2001/REC-SVG-20010904/DTD/svg10.dtd">
<svg version="1.0" xmlns="http://www.w3.org/2000/svg"
 width="700.000000pt" height="700.000000pt" viewBox="0 0 700.000000 700.000000"
 preserveAspectRatio="xMidYMid meet">
<metadata>
Created by potrace 1.11, written by Peter Selinger 2001-2013
</metadata>
<g transform="translate(0.000000,700.000000) scale(0.100000,-0.100000)"
fill="#000000" stroke="none">
<path d="M2340 6286 c-63 -14 -103 -34 -145 -73 -82 -75 -93 -124 -95 -391 0
-119 -2 -217 -4 -219 -1 -1 -407 -3 -902 -3 -943 0 -939 0 -1020 -43 -40 -21
-86 -66 -117 -113 -60 -91 -57 61 -57 -2299 0 -2304 -2 -2184 45 -2274 19 -37
90 -107 128 -127 91 -46 -80 -44 3322 -44 3373 0 3245 -1 3330 42 65 34 143
131 162 203 4 17 9 1004 10 2195 3 2294 5 2200 -40 2287 -20 38 -92 110 -130
130 -84 43 -78 43 -1021 43 -495 0 -901 1 -902 3 -1 1 -4 108 -6 237 -3 225
-4 237 -27 284 -31 63 -82 111 -151 145 l-55 26 -1135 2 c-864 1 -1148 -1
-1190 -11z m2210 -686 l0 -350 1050 0 1050 0 0 -2100 0 -2100 -3150 0 -3150 0
0 2100 0 2100 1050 0 1050 0 0 350 0 350 1050 0 1050 0 0 -350z"/>
<path d="M3270 4724 c-85 -15 -91 -16 -179 -39 -348 -90 -697 -354 -889 -670
-104 -172 -188 -406 -208 -580 -3 -33 -8 -69 -10 -80 -6 -32 -5 -214 1 -285 9
-93 52 -281 85 -371 136 -369 403 -666 755 -841 138 -69 323 -127 450 -143 28
-3 66 -8 85 -10 115 -16 318 -2 470 31 404 90 740 329 967 689 99 157 188 401
208 575 4 30 9 66 11 80 5 32 5 245 -1 285 -2 16 -7 52 -10 80 -10 72 -50 230
-79 307 -178 473 -588 835 -1071 946 -145 33 -152 34 -335 37 -111 1 -202 -2
-250 -11z m380 -378 c276 -45 488 -153 671 -343 121 -125 244 -338 273 -475 3
-13 10 -42 16 -65 26 -108 32 -280 13 -407 -80 -552 -550 -965 -1103 -969
-168 -1 -233 8 -370 53 -147 48 -334 157 -425 247 -106 105 -182 209 -241 326
-36 71 -92 229 -99 282 -43 295 -13 508 103 738 166 331 485 558 857 612 80
11 239 12 305 1z"/>
</g>
</svg>
